<svg width="32" height="32" viewBox="0 0 32 32" fill="none" xmlns="http://www.w3.org/2000/svg">
<path d="M31.3618 6.23438H0.636719V26.4186H13.3793V27.6297H18.6193V26.4186H31.3618V6.23438Z" fill="#FFAD61"/>
<path d="M16.0006 24.1919H2.79688V4.36719H14.0415C15.1234 4.36719 16.0006 5.24425 16.0006 6.32625V24.1919Z" fill="#FFE6B8"/>
<path d="M16 24.1919H29.2505V4.36719H18.0059C16.9239 4.36719 16 5.24425 16 6.32625V24.1919Z" fill="#FFE6B8"/>
<path d="M8.65934 21.514C9.96194 21.514 11.0179 20.458 11.0179 19.1554C11.0179 17.8528 9.96194 16.7969 8.65934 16.7969C7.35675 16.7969 6.30078 17.8528 6.30078 19.1554C6.30078 20.458 7.35675 21.514 8.65934 21.514Z" fill="#D35B38"/>
<path d="M31.3626 5.59813H29.8879V4.364C29.8879 4.012 29.6026 3.72656 29.2505 3.72656H18.0059C17.2072 3.72656 16.4908 4.07675 16.0057 4.62844C15.5292 4.07681 14.8254 3.72656 14.0409 3.72656H2.79631C2.44425 3.72656 2.15887 4.012 2.15887 4.364V5.59819H0.637438C0.285375 5.59813 0 5.88356 0 6.23556V26.4198C0 26.7718 0.285375 27.0572 0.637438 27.0572H12.7426V27.6309C12.7426 27.9829 13.0279 28.2683 13.38 28.2683H18.6199C18.9719 28.2683 19.2573 27.9829 19.2573 27.6309V27.0572H31.3625C31.7146 27.0572 31.9999 26.7718 31.9999 26.4198V6.23556C32 5.88356 31.7146 5.59813 31.3626 5.59813ZM18.0059 5.00144H28.6131V23.5513H16.6374V6.323C16.6374 5.60663 17.2641 5.00144 18.0059 5.00144ZM3.43375 5.00144H14.0409C14.7697 5.00144 15.3626 5.59431 15.3626 6.323V23.5513H3.43375V5.00144ZM29.2505 24.8261C29.6026 24.8261 29.8879 24.5407 29.8879 24.1887V6.87306H30.7251V25.7823H18.62C18.2679 25.7823 17.9826 26.0678 17.9826 26.4198V26.9934H14.0176V26.4198C14.0176 26.0678 13.7322 25.7823 13.3801 25.7823H1.27488V6.87306H2.15881V24.1887C2.15881 24.5407 2.44419 24.8261 2.79625 24.8261H29.2505Z" fill="#4D3D36"/>
<path d="M12.1661 12.0781C10.4337 12.0781 9.15306 13.1535 8.46281 15.1881C8.34638 15.5313 8.257 15.8732 8.18813 16.1953C6.75963 16.4224 5.66406 17.6624 5.66406 19.1539C5.66406 20.8059 7.00806 22.1499 8.66006 22.1499C10.3121 22.1499 11.6561 20.8059 11.6561 19.1539C11.6561 17.7856 10.7337 16.6294 9.47837 16.2724C9.79444 14.9383 10.5169 13.3531 12.166 13.3531C12.5181 13.3531 12.8034 13.0677 12.8034 12.7157C12.8034 12.3637 12.5181 12.0781 12.1661 12.0781ZM10.3812 19.1538C10.3812 20.1029 9.60912 20.8749 8.66006 20.8749C7.711 20.8749 6.93894 20.1029 6.93894 19.1538C6.93894 18.4439 7.371 17.8332 7.98581 17.5704C7.962 17.8593 7.95912 18.0421 7.95887 18.0626C7.95475 18.4144 8.23631 18.7026 8.58806 18.7071C8.59088 18.7072 8.59369 18.7072 8.5965 18.7072C8.94444 18.7072 9.22881 18.4273 9.23375 18.0784C9.23387 18.0687 9.23819 17.8637 9.26938 17.5444C9.9185 17.7911 10.3812 18.4193 10.3812 19.1538Z" fill="#4D3D36"/>
<path d="M13.0592 6.65625H5.66478C5.31272 6.65625 5.02734 6.94169 5.02734 7.29369C5.02734 7.64569 5.31272 7.93113 5.66478 7.93113H13.0592C13.4113 7.93113 13.6967 7.64569 13.6967 7.29369C13.6967 6.94169 13.4113 6.65625 13.0592 6.65625Z" fill="#4D3D36"/>
<path d="M13.0592 9.14844H5.66478C5.31272 9.14844 5.02734 9.43388 5.02734 9.78588C5.02734 10.1379 5.31272 10.4233 5.66478 10.4233H13.0592C13.4113 10.4233 13.6967 10.1379 13.6967 9.78588C13.6967 9.43388 13.4113 9.14844 13.0592 9.14844Z" fill="#4D3D36"/>
<path d="M18.989 7.93113H26.3834C26.7355 7.93113 27.0209 7.64569 27.0209 7.29369C27.0209 6.94169 26.7355 6.65625 26.3834 6.65625H18.989C18.6369 6.65625 18.3516 6.94169 18.3516 7.29369C18.3515 7.64569 18.6369 7.93113 18.989 7.93113Z" fill="#4D3D36"/>
<path d="M18.989 10.4233H26.3834C26.7355 10.4233 27.0209 10.1379 27.0209 9.78588C27.0209 9.43388 26.7355 9.14844 26.3834 9.14844H18.989C18.6369 9.14844 18.3516 9.43388 18.3516 9.78588C18.3516 10.1379 18.6369 10.4233 18.989 10.4233Z" fill="#4D3D36"/>
<path d="M18.989 12.9702H26.3834C26.7355 12.9702 27.0209 12.6847 27.0209 12.3327C27.0209 11.9807 26.7355 11.6953 26.3834 11.6953H18.989C18.6369 11.6953 18.3516 11.9807 18.3516 12.3327C18.3516 12.6847 18.6369 12.9702 18.989 12.9702Z" fill="#4D3D36"/>
<path d="M26.3834 14.1797H26.1921C25.8401 14.1797 25.5547 14.4651 25.5547 14.8171C25.5547 15.1691 25.8401 15.4546 26.1921 15.4546H26.3834C26.7354 15.4546 27.0208 15.1691 27.0208 14.8171C27.0208 14.4651 26.7354 14.1797 26.3834 14.1797Z" fill="#4D3D36"/>
<path d="M18.989 15.4546H24.0886C24.4407 15.4546 24.7261 15.1691 24.7261 14.8171C24.7261 14.4651 24.4407 14.1797 24.0886 14.1797H18.989C18.6369 14.1797 18.3516 14.4651 18.3516 14.8171C18.3516 15.1691 18.6369 15.4546 18.989 15.4546Z" fill="#4D3D36"/>
</svg>
